<svg xmlns="http://www.w3.org/2000/svg" display="block" preserveAspectRatio="none" viewBox="0 0 2048 2048">
  <defs>
    <linearGradient id="f" x1="1762.92" x2="1210.52" y1="733.07" y2="492.64" gradientUnits="userSpaceOnUse">
      <stop class="stop0" offset="0" stop-color="#ff6b72"/>
      <stop class="stop1" offset="1" stop-color="#d95ba9"/>
    </linearGradient>
    <linearGradient id="e" x1="1077.65" x2="891.72" y1="739.55" y2="583.25" gradientUnits="userSpaceOnUse">
      <stop class="stop0" offset="0" stop-color="#a450b2"/>
      <stop class="stop1" offset="1" stop-color="#5d5bd7"/>
    </linearGradient>
    <linearGradient id="d" x1="1117.19" x2="706.97" y1="1727.13" y2="1479.52" gradientUnits="userSpaceOnUse">
      <stop class="stop0" offset="0" stop-color="#ffa936"/>
      <stop class="stop1" offset="1" stop-color="#fa7f63"/>
    </linearGradient>
    <linearGradient id="c" x1="1213.12" x2="1034.84" y1="551.59" y2="390.75" gradientUnits="userSpaceOnUse">
      <stop class="stop0" offset="0" stop-color="#bf4bd8"/>
      <stop class="stop1" offset="1" stop-color="#8967e3"/>
    </linearGradient>
    <linearGradient id="b" x1="672.35" x2="236.27" y1="1083.89" y2="654.69" gradientUnits="userSpaceOnUse">
      <stop class="stop0" offset="0" stop-color="#b451dd"/>
      <stop class="stop1" offset="1" stop-color="#2d96f5"/>
    </linearGradient>
    <linearGradient id="a" x1="1100.34" x2="407.71" y1="449.91" y2="612.52" gradientUnits="userSpaceOnUse">
      <stop class="stop0" offset="0" stop-color="#8f62e4"/>
      <stop class="stop1" offset="1" stop-color="#15a6f5"/>
    </linearGradient>
  </defs>
  <path fill="#fefefe" d="M439.66 444.36c1.71-2.28 8.58-8.61 10.9-10.76 45.4-42.02 102.02-66.88 162.3-78.41 16.75-3.2 39.09-1.94 56.71-2.34a4137 4137 0 0 1 136.75-1.2l191.22.03c31.92 0 69.45-.9 101.03.24 55.67-1.17 111.8.48 167.52-.14 7.88-.09 16.74-.25 24.54.18 5.2.9 4.79-.01 8.03 2.97 3.15 11.98-23.91 31.42-31.12 39.1-7.79 8.28-15.43 18.27-22.7 27.13-17.79 27.93-42.55 69.13-51.01 101.2-3.17 12-2.72 40.18-5.55 48.65l1.26.15c1.87-2.13 1.72-1.99 2.36-4.77.33 3.85.59 7.22.69 11.08a482.4 482.4 0 0 1 267.17 251.25q5.25 11.54 10.38 23.12c59.61-6.55 122.04 4.75 177.9 26.16 16.36 6.28 31.44 15.43 46.33 21.27.87 28.48-.07 61.32-.13 90.14l-.24 177.31-.02 124.01c0 43.25 3.64 86.01-7.73 128.07-40.1 148.34-173.53 269.18-330 275.75-22.6.94-45.92.3-68.43.24l-148.29.34q-150.78.64-301.55-.26l-90.54.02c-63.46.18-95.79.21-156.5-21.81-2.06-1.29-10.72-4.57-13.44-5.76-112.98-49.42-198.3-150.93-220.3-273.15-2.74-15.14-3.06-25.42-3.21-40.58-.67-68.73-.66-137.48-.55-206.22-.65-32.29-.03-67.11-.06-99.6l-.2-194.15-.03-134.68c-.04-23.84-.78-52.19.1-75.6 2.22-58.39 22.8-115.58 56.6-163.06 9.07-12.74 18.2-25.23 29.81-35.92"/>
  <path fill="url(#a)" d="M439.66 444.36c1.71-2.28 8.58-8.61 10.9-10.76 45.4-42.02 102.02-66.88 162.3-78.41 16.75-3.2 39.09-1.94 56.71-2.34a4137 4137 0 0 1 136.75-1.2l191.22.03c31.92 0 69.45-.9 101.03.24 55.67-1.17 111.8.48 167.52-.14 7.88-.09 16.74-.25 24.54.18 5.2.9 4.79-.01 8.03 2.97 3.15 11.98-23.91 31.42-31.12 39.1-7.79 8.28-15.43 18.27-22.7 27.13-17.79 27.93-42.55 69.13-51.01 101.2-3.17 12-2.72 40.18-5.55 48.65l1.26.15c1.87-2.13 1.72-1.99 2.36-4.77.33 3.85.59 7.22.69 11.08a470.3 470.3 0 0 0-353.86 6.43c-17.3 7.49-32.93 16.98-48.63 23.92-73.63 43.38-131.15 97.4-175.29 171.32a473.5 473.5 0 0 0-61.17 328.43c-2.35 2.18-3.45 2.68-3.35 6.76.56 22.49 9.48 62.69 16.4 83.28-51.5 1.43-108.34-6.93-156.83-24.81-18.44-6.8-38.08-17.35-56.42-25.43-.65-32.29-.03-67.11-.06-99.6l-.2-194.15-.03-134.68c-.04-23.84-.78-52.19.1-75.6 2.22-58.39 22.8-115.58 56.6-163.06 9.07-12.74 18.2-25.23 29.81-35.92"/>
  <path fill="url(#b)" d="M439.66 444.36c-1.41 7.37-10.2 12.1-12.9 17.6-10.37 21.13-24.37 41.74-31.58 64.18-2.33 8.63 10.79 18.75 12 25.56 3.5 19.73-1.64 49 2.88 68.17 11.48 48.7 30.42 93.89 73.98 122.1 21.21 13.73 28.48 21.1 53.6 28.05a136 136 0 0 0 26.85 4.58c12.54.85 33.7-.64 46.72.96.2.03 3.08 3 3.6 3.58a473.5 473.5 0 0 0-61.17 328.43c-2.35 2.18-3.45 2.68-3.35 6.76.56 22.49 9.48 62.69 16.4 83.28-51.5 1.43-108.34-6.93-156.83-24.81-18.44-6.8-38.08-17.35-56.42-25.43-.65-32.29-.03-67.11-.06-99.6l-.2-194.15-.03-134.68c-.04-23.84-.78-52.19.1-75.6 2.22-58.39 22.8-115.58 56.6-163.06 9.07-12.74 18.2-25.23 29.81-35.92"/>
  <path fill="url(#c)" d="M1098.57 351.92c55.67-1.17 111.8.48 167.52-.14 7.88-.09 16.74-.25 24.54.18 5.2.9 4.79-.01 8.03 2.97 3.15 11.98-23.91 31.42-31.12 39.1-7.79 8.28-15.43 18.27-22.7 27.13-17.79 27.93-42.55 69.13-51.01 101.2-3.17 12-2.72 40.18-5.55 48.65l1.26.15c1.87-2.13 1.72-1.99 2.36-4.77.33 3.85.59 7.22.69 11.08a470.3 470.3 0 0 0-353.86 6.43c-17.3 7.49-32.93 16.98-48.63 23.92l-4.69-1.98c-5.1-6.88 1.85-16.16-.16-25.93-4.38-21.26-5.55-43.5-13.91-63.69l-.6-1.43c7.2 3.8 14.2 56.66 15.38 66.19.78 6.32-2.06 18.78-.14 23.34 3.53 2.06 1.66 1.48 5.9 1.61 13.24-12.76 80.18-36.77 100.06-43.24 5.38-1.76 17.68-3.13 23.3-5.77 3.1-1.45 2.4-5.26 3.32-7.98l4.7-4.4-1.4-6.03c6.94-14.12 21.93-18.62 33.22-28.49 7.73-6.75 8.37-15.8 14.58-21.02 6.95-5.85 16.7-9.8 23.37-18.11 13.8-17.2 27.04-37.81 41.12-54.68-.24.28 3.33-1.63 3.35-1.61 1.14.78 3.8-5.1 4.17-6.29 3.38-10.96 14.48-11.02 22-18.21 2.95-3.81 4.93-8.72 7.55-12.78 3.94-6.12 10.19-11.18 6.54-18.89-2.7-2.68-6.17-3.03-9.94-3.94 6.17 0 33.33.83 36.65-.78-1.96-.74-3.89-1.22-5.9-1.79"/>
  <path fill="#3dd380" d="M1470.14 851.84c59.61-6.55 122.04 4.75 177.9 26.16 16.36 6.28 31.44 15.43 46.33 21.27.87 28.48-.07 61.32-.13 90.14l-.24 177.31-.02 124.01c0 43.25 3.64 86.01-7.73 128.07-40.1 148.34-173.53 269.18-330 275.75-22.6.94-45.92.3-68.43.24l-148.29.34c4.2-6.96 8.59-17.14 12.25-24.55 23.67-48.04 38.92-109.25 39.17-163.18l.05-6.05c17.13.29 59.49-22.79 76.9-30.69 9.15-2.71 11.83-6.66 20.04-9.55 33.74 8.89 66.83 22.93 101.46 30.06 11.29 2.33 25.25 9.41 36.66 11.31 12.81-5.79 14.54-17.19 17.12-30.14 3.34 1.18 8.89 2.77 11.46 4.87l3.96.36 1.2-1.36c-1.43-12.27-14.26-53.37-18.84-67.99-10.56-33.64-19.61-69.82-30.31-103.03 18.2-27.25 35.99-56.43 49.31-86.42a477.9 477.9 0 0 0 10.18-366.93"/>
  <path fill="#89c760" d="M1191 1501.35c17.13.29 59.49-22.79 76.9-30.69 5.67 7.2 5.7 15.51 8.15 24.33 2.46 8.88 8.96 21.04 10.5 29.44 4.81 26.13 3.41 54.87 4.92 81.46.7 12.29 4.77 27.74 2.98 39.33-2.32 15.03-5.54 34.52-6.63 49.57l-148.29.34c4.2-6.96 8.59-17.14 12.25-24.55 23.67-48.04 38.92-109.25 39.17-163.18zM1443.18 1472.34c3.34 1.18 8.89 2.77 11.46 4.87-4.01 7.82 3.92 28.28 7.38 36.54a1325 1325 0 0 1-35.96-11.27c12.81-5.79 14.54-17.19 17.12-30.14"/>
  <path fill="#f66585" d="M353.44 1147.37c18.34 8.08 37.98 18.63 56.42 25.43 48.5 17.88 105.33 26.24 156.83 24.81l1.16.39c37.91 98.85 68.45 161.74 153.92 229.13 41.05 32.36 59.5 45.37 108.63 67.28l15.1 6.66c-3.9 4.24-7 6-10.67 10-33.2 36.19-62.74 70.42-106.49 94.48-9.37 5.49-19.74 8.84-29.65 13.44-6.19 2.86-22.12 17.17-25.56 18.03-21.09 5.31-33.96 8.68-52.22 20.5-10.66 6.9-20.95-4.66-29.97 15.56-2.06-1.29-10.72-4.57-13.44-5.76-112.98-49.42-198.3-150.93-220.3-273.15-2.74-15.14-3.06-25.42-3.21-40.58-.67-68.73-.66-137.48-.55-206.22"/>
  <path fill="url(#d)" d="M845.5 1501.07c7.5 2.72 49.03 17.34 56.23 17.6 13.91 6.36 42.36 10.7 58.22 12.8a485 485 0 0 0 179.8-9.05c17.36-4.22 34.11-10.7 51.2-15.02-.25 53.93-15.5 115.14-39.17 163.18-3.66 7.41-8.05 17.59-12.25 24.55q-150.78.64-301.55-.26l-90.54.02c-63.46.18-95.79.21-156.5-21.81 9.02-20.22 19.31-8.66 29.97-15.56 18.26-11.82 31.13-15.19 52.22-20.5 3.44-.86 19.37-15.17 25.56-18.03 9.91-4.6 20.28-7.95 29.65-13.44 43.75-24.06 73.3-58.29 106.49-94.48 3.67-4 6.76-5.76 10.66-10"/>
  <path fill="#d6616e" d="M578.96 1197.91c50.63 122.73 139.3 214.72 262.28 267.01 20.98 8.93 62.68 24.01 85.3 26.83-5 10.3-15.3 14.5-24.81 26.92-7.2-.26-48.73-14.88-56.24-17.6l-15.1-6.66c-49.12-21.91-67.57-34.92-108.62-67.28-85.47-67.39-116.01-130.28-153.92-229.13z"/>
  <path fill="#d9893e" d="M926.55 1491.75c12.45 3.29 35.05 6.09 48.28 7.49 77.75 8.23 141.66-3.03 214.97-27.01a382 382 0 0 1 1.2 29.12l-.05 6.05c-17.09 4.32-33.84 10.8-51.2 15.02a485 485 0 0 1-179.8 9.05c-15.86-2.1-44.31-6.44-58.22-12.8 9.5-12.42 19.8-16.62 24.82-26.92"/>
  <path fill="#71b888" d="M1286.67 1423.29q56.52 18.16 113.23 35.68c11.12 3.42 32.56 11.27 43.28 13.37-2.58 12.95-4.31 24.35-17.12 30.14-11.41-1.9-25.37-8.98-36.66-11.31-34.63-7.13-67.72-21.17-101.46-30.06-8.21 2.89-10.89 6.84-20.04 9.55-17.41 7.9-59.77 30.98-76.9 30.69a382 382 0 0 0-1.2-29.12c33.71-12.07 66.24-30.54 96.87-48.94"/>
  <path fill="#894cb3" d="M566.69 1197.61c-6.92-20.59-15.84-60.79-16.4-83.28-.1-4.08 1-4.58 3.35-6.76 6.7 32.95 12.7 58.83 25.32 90.34l-11.1.09z"/>
  <path fill="#9d6cce" d="M820.19 664.83a365 365 0 0 1 21.22-11.58c90.72-45.68 207.8-55.9 304.47-24.09 111.68 32.12 216.99 125.68 259.22 234.56a412 412 0 0 1 28.79 105.32c1.44 11.27 1.5 20.31 2.6 30.8 2.32 17.78 1.09 41.09-.51 58.88a409 409 0 0 1-84.42 216.99 415.5 415.5 0 0 1-169.31 129.91c-50.99 18.55-87.7 28.92-143 30.93a414.6 414.6 0 0 1-240.28-66.54c-10.3-6.8-24.38-15.92-33.25-24.17-9.08-6.37-21.99-18.47-30.11-26.48a412 412 0 0 1-90.15-129.78c-1.3-4.64-6-16.01-7.87-21a421 421 0 0 1-12.97-39.58c-16.5-61.89-19.81-160.21 3.08-220.16a88 88 0 0 1 2.13-8.39c29.85-98.67 100.8-185.85 190.36-235.62"/>
  <path fill="#fefefe" d="M931.59 913.04c-1.34-29.73-1.01-63.95 20.68-86.83 34.05-35.93 104.06-38.03 140.18-4.1 19.74 18.54 23.76 42.55 24.38 68.15q.25 11.4.07 22.79c4.22 3.65 4.77 4.47 7.83 9.18.8 12.8.88 20.57-2.69 33.04-2.74 9.57-11.76 14.27-14.77 21.24-8.91 20.6-17.77 37.08-30.38 55.73.1 10.26.91 21.07 9.14 28.35 16.39 14.49 47.15 25.27 66.81 34.53 21.6 10.49 50.34 23.04 57 48.5 14.12 54.02 19.41 72.64-39.84 89.3a389 389 0 0 1-53.93 10.7c10.05 18.22 21.46 36.98 30.05 55.81 15.47 33.91 28.89 69.54 36.13 106.19-50.99 18.55-87.7 28.92-143 30.93a414.6 414.6 0 0 1-240.28-66.54c-10.3-6.8-24.38-15.92-33.25-24.17-9.08-6.37-21.99-18.47-30.11-26.48a412 412 0 0 1-90.15-129.78c14.43-5.22 70.71-14.9 76.64-25.34 29.6 6.7 58.4 8.27 88.59 9.01q.14-2.88.47-5.74c4.82-42.02 17.7-60.71 54.95-80.47 4.96-2.64 21.85-11.06 24.69-13.34l-.5-1.46c2.19-28.62 54.34-34.02 76.9-42.28l1.88-.71c-12.83-18.18-17.64-31.6-27.83-50.8-10.01-18.87-32.34-44.55-9.66-65.4"/>
  <path fill="#ef7f6c" d="M856.72 1224.83c72.03 28.41 183.48 28.41 259.35 18.79 10.05 18.22 21.46 36.98 30.05 55.81 15.47 33.91 28.89 69.54 36.13 106.19-50.99 18.55-87.7 28.92-143 30.93a414.6 414.6 0 0 1-240.28-66.54c-10.3-6.8-24.38-15.92-33.25-24.17-.75-1.78-2.66-5.59-1.6-7.2 7.7-11.75 22.54-23.34 32.31-33.78 8.68-9.14 16.05-19.43 23.93-29.28 12.75-15.92 31.16-30.35 36.36-50.75"/>
  <path fill="#d556ab" d="M969.08 1029.25c2.85 5.96 3.03 13.57.66 19.77-12.02 31.39-98.05 44.32-122.06 77.51-8.96 12.4-11.82 26.55-14.42 41.32-2 11.4-6.17 25.94-1.65 37.02 4.33 10.62 15.29 15.6 25.11 19.96-5.2 20.4-23.61 34.83-36.36 50.75-7.88 9.85-15.25 20.14-23.93 29.28-9.77 10.44-24.62 22.03-32.31 33.78-1.06 1.61.85 5.42 1.6 7.2-9.08-6.37-21.99-18.47-30.11-26.48a412 412 0 0 1-90.15-129.78c14.43-5.22 70.71-14.9 76.64-25.34 29.6 6.7 58.4 8.27 88.59 9.01q.14-2.88.47-5.74c4.82-42.02 17.7-60.71 54.95-80.47 4.96-2.64 21.85-11.06 24.69-13.34l-.5-1.46c2.19-28.62 54.34-34.02 76.9-42.28z"/>
  <path fill="#71b888" d="M1386.68 866.9c6.19-2.77 11.83-3.1 18.42-3.18a412 412 0 0 1 28.79 105.32c1.44 11.27 1.5 20.31 2.6 30.8 2.32 17.78 1.09 41.09-.51 58.88a409 409 0 0 1-84.42 216.99 415.5 415.5 0 0 1-169.31 129.91c-7.24-36.65-20.66-72.28-36.13-106.19-8.59-18.83-20-37.59-30.05-55.81a389 389 0 0 0 53.93-10.7c59.25-16.66 53.96-35.28 39.84-89.3-6.66-25.46-35.4-38.01-57-48.5 3.56-5.87 8.26-11.94 10.19-18.27-2.66-1.26-3.17-1.11-4.67-3.5 2.6-4.63 51.15-18.23 49.13-32.85-4.01-28.94-28.25-46.12-30.22-76.92l1.73-3.56c7.98-16.11.16-34.87 11.04-53.62 10.63-18.33 23.35-21.84 42.04-27.26 23.96-.64 47.46.41 62.82 22.33 8.38-3.32 17.91-8.22 26.58-11.88 21.07-9 42.7-16.61 64.75-22.8z"/>
  <path fill="#fefefe" d="M1232.08 879.14c23.96-.64 47.46.41 62.82 22.33 14.23 26.64 5.93 35.54 12.78 58.63 11.2 37.73-55.89 70.87-13.32 96.28 27.29 15.5 62.95 18.47 73.15 53.55 12.59 43.33-7.46 47.24-44.47 55.65-27.87 6.34-56.62 7.34-85.7 7.76-5.51-56.04-24.4-73.59-74.31-96.49-2.66-1.26-3.17-1.11-4.67-3.5 2.6-4.63 51.15-18.23 49.13-32.85-4.01-28.94-28.25-46.12-30.22-76.92l1.73-3.56c7.98-16.11.16-34.87 11.04-53.62 10.63-18.33 23.35-21.84 42.04-27.26"/>
  <path fill="#5b948c" d="M1386.68 866.9c6.19-2.77 11.83-3.1 18.42-3.18a412 412 0 0 1 28.79 105.32c1.44 11.27 1.5 20.31 2.6 30.8l-.72 2.79-1.74.86c-6.25-4.82-12.35-45.75-15.68-57.39-8.25-28.76-20.92-51.88-31.67-79.2"/>
  <path fill="#fefefe" d="M678.03 1141.79c-2.83-52.31 23.14-63.26 65.26-79.99 7.39-2.93 15.78-7.18 20.98-13.07 16.43-18.58-23.2-54.9-24.91-76.56-.74-9.31 3.44-12.95 3.88-18.94 1.19-20.29-1-39.18 13.65-55.78 21.75-24.65 67.62-25.4 91.64-3.87 15.69 14.06 17.35 35.32 17.31 54.9-.01 6.47 2.1 9.58 4.11 15.55 3.44 18.96-17.83 41.86-25.28 58.55-3.05 6.83-5.28 13.47-2.6 20.12 6.2 15.29 33.53 22.41 48.22 29.54l.5 1.46c-2.83 2.28-19.72 10.7-24.68 13.34-37.25 19.76-50.13 38.45-54.95 80.47a90 90 0 0 0-.47 5.74c-30.2-.74-59-2.31-88.59-9.01a294 294 0 0 1-15.75-4c-13.33-3.77-21.52-6.25-28.32-18.45"/>
  <path fill="#f66585" d="M1145.88 629.16c111.68 32.12 216.99 125.68 259.22 234.56-6.59.08-12.23.41-18.42 3.17l-.45-.1a530 530 0 0 0-64.75 22.8c-8.67 3.66-18.2 8.56-26.58 11.88-15.36-21.92-38.86-22.97-62.82-22.33 6.45-4.5 16.33-2.8 23.66-1.53-.35-31.5 9.86-52.23 13.56-81.57 3.74-29.59-6.32-26.45 11.8-55.78-3.94-2.4-9.5-6.91-13.24-9.8-19.61-15.17-41.5-26.42-62.07-40.02-3.65-1.1-8.28-3.26-11.84-4.85-16.68-7.44-32.83-14.19-50.37-19.5-.02-5.12 5.87-18.13 7.93-25.72-2.63-4.45-3.85-6.4-5.63-11.2"/>
  <path fill="#d556ab" d="M1145.88 629.16c111.68 32.12 216.99 125.68 259.22 234.56-6.59.08-12.23.41-18.42 3.17l-.45-.1c-4.26-17.25-31.21-53.88-43.28-68.3-8.26-9.86-52.51-57.35-61.85-58.23-3.94-2.4-9.5-6.91-13.24-9.8-19.61-15.17-41.5-26.42-62.07-40.02-3.65-1.1-8.28-3.26-11.84-4.85-16.68-7.44-32.83-14.19-50.37-19.5-.02-5.12 5.87-18.13 7.93-25.72-2.63-4.45-3.85-6.4-5.63-11.2"/>
  <path fill="#894cb3" d="M1151.51 640.37c3.49 7.97 1.39 16.44 1.11 25.25 16.7 7.59 40.68 13.4 53.17 24.82-3.65-1.1-8.28-3.26-11.84-4.85-16.68-7.44-32.83-14.19-50.37-19.5-.02-5.12 5.87-18.13 7.93-25.72"/>
  <path fill="#2e98f1" d="M820.19 664.83c3.4 9.75 5.58 22.23 7.7 32.52l1.85 6.4c3.82 14.9 6.35 25.6 11.78 40.26.49 5.1 1.82 7.12 2.54 11.26l-.74.77c-6 6.35-12.83 16.26-18.53 21.59-24.77 23.2-52.26 42.96-79.93 62.49-8.61 6.07-23.53 18.16-32.75 21.69-9 3.44-33.1 6.79-42.65 7.18q-3.8.14-7.6.03c-3.91 8.6-14.85 29.73-15.45 37.88l-1.23.56-.87-.76c-2.65-2.29-3.26-3.13-6.69-4-4.52.81-6.62 2.6-9.27 6.54l-.65-.4a88 88 0 0 1 2.13-8.39c29.85-98.67 100.8-185.85 190.36-235.62"/>
  <path fill="#3e77cc" d="M820.19 664.83c3.4 9.75 5.58 22.23 7.7 32.52A415.4 415.4 0 0 0 681.1 833.72c-5.65 8.68-16.48 26.08-19.26 35.3-3.9 8.6-14.84 29.73-15.44 37.88l-1.23.56-.87-.76c-2.65-2.29-3.26-3.13-6.69-4-4.52.81-6.62 2.6-9.27 6.54l-.65-.4a88 88 0 0 1 2.13-8.39c29.85-98.67 100.8-185.85 190.36-235.62"/>
  <path fill="url(#e)" d="M820.19 664.83a365 365 0 0 1 21.22-11.58c90.72-45.68 207.8-55.9 304.47-24.09 1.78 4.8 3 6.76 5.63 11.2-2.06 7.6-7.95 20.6-7.93 25.72-22.85-6.72-47.8-14.22-71.6-16.85-69.81-7.7-142.88 4.3-207.25 32.23-7.16 3.11-30.99 10.95-34.7 19.45-.22.52-.24 2.39-.29 2.84l-1.86-6.4c-2.11-10.29-4.29-22.77-7.7-32.52"/>
  <path fill="#894cb3" d="M841.52 744c2.62 3.64 14.18 33.87 14.23 38.07-4.33-8.03-8.19-18.23-11.69-26.8-.72-4.14-2.05-6.17-2.54-11.26"/>
  <path fill="url(#f)" d="m1290.63 351.96 82.84.05c13.65 0 39.46-.62 52.08 1.75 38.41 4.05 98.62 29.01 130.79 49.43 22.91 14.54 53.29 41.98 70.48 63.2a308 308 0 0 1 64.75 152.91c4.47 36.55 3.07 87.1 3.05 124.68l-.25 155.3c-14.89-5.85-29.97-15-46.33-21.28-55.86-21.4-118.29-32.71-177.9-26.16a2406 2406 0 0 0-10.38-23.12 482.4 482.4 0 0 0-267.17-251.25c-.1-3.86-.36-7.23-.69-11.08-.64 2.78-.49 2.64-2.36 4.77l-1.26-.15c2.83-8.47 2.38-36.65 5.55-48.65 8.46-32.07 33.22-73.27 51.01-101.2 7.27-8.86 14.91-18.85 22.7-27.13 7.21-7.68 34.27-27.12 31.12-39.1-3.24-2.98-2.83-2.08-8.03-2.98"/>
  <path fill="#d556ab" d="m1290.63 351.96 82.84.05c13.65 0 39.46-.62 52.08 1.75-12.96.48-100.44-1.07-104.47 1.87-1.34 5.97-4.76 8.02-9.35 11.54-13.78 10.52-21.45 26.53-32.11 40.05a835 835 0 0 0-22.37 30.1c-3.11 4.65-7.12 17.67-10.33 22.25-5.47 7.65-13.66 12.47-16.68 21.9-2.06 6.47-8.71 10.9-12.01 16.3-5.57 9.13-15.34 20.56-20.79 29.24-5.24 8.35-5.61 28.6-5.33 38.16l-.21 1.22c-.64 2.78-.49 2.64-2.36 4.77l-1.26-.15c2.83-8.47 2.38-36.65 5.55-48.65 8.46-32.07 33.22-73.27 51.01-101.2 7.27-8.86 14.91-18.85 22.7-27.13 7.21-7.68 34.27-27.12 31.12-39.1-3.24-2.98-2.83-2.08-8.03-2.98"/>
</svg>
