<svg version="1.1" xmlns="http://www.w3.org/2000/svg" style="display: block;" viewBox="0 0 2048 2048" width="1024" height="1024" preserveAspectRatio="none">
<defs>
	<linearGradient id="Gradient1" gradientUnits="userSpaceOnUse" x1="1762.92" y1="733.07" x2="1210.52" y2="492.638">
		<stop class="stop0" offset="0" stop-opacity="1" stop-color="rgb(255,107,114)"/>
		<stop class="stop1" offset="1" stop-opacity="1" stop-color="rgb(217,91,169)"/>
	</linearGradient>
	<linearGradient id="Gradient2" gradientUnits="userSpaceOnUse" x1="1077.65" y1="739.546" x2="891.722" y2="583.248">
		<stop class="stop0" offset="0" stop-opacity="1" stop-color="rgb(164,80,178)"/>
		<stop class="stop1" offset="1" stop-opacity="1" stop-color="rgb(93,91,215)"/>
	</linearGradient>
	<linearGradient id="Gradient3" gradientUnits="userSpaceOnUse" x1="1117.19" y1="1727.13" x2="706.972" y2="1479.52">
		<stop class="stop0" offset="0" stop-opacity="1" stop-color="rgb(255,169,54)"/>
		<stop class="stop1" offset="1" stop-opacity="1" stop-color="rgb(250,127,99)"/>
	</linearGradient>
	<linearGradient id="Gradient4" gradientUnits="userSpaceOnUse" x1="1213.12" y1="551.59" x2="1034.84" y2="390.754">
		<stop class="stop0" offset="0" stop-opacity="1" stop-color="rgb(191,75,216)"/>
		<stop class="stop1" offset="1" stop-opacity="1" stop-color="rgb(137,103,227)"/>
	</linearGradient>
	<linearGradient id="Gradient5" gradientUnits="userSpaceOnUse" x1="672.354" y1="1083.89" x2="236.272" y2="654.689">
		<stop class="stop0" offset="0" stop-opacity="1" stop-color="rgb(180,81,221)"/>
		<stop class="stop1" offset="1" stop-opacity="1" stop-color="rgb(45,150,245)"/>
	</linearGradient>
	<linearGradient id="Gradient6" gradientUnits="userSpaceOnUse" x1="1100.34" y1="449.914" x2="407.714" y2="612.521">
		<stop class="stop0" offset="0" stop-opacity="1" stop-color="rgb(143,98,228)"/>
		<stop class="stop1" offset="1" stop-opacity="1" stop-color="rgb(21,166,245)"/>
	</linearGradient>
</defs>
<path transform="translate(0,0)" fill="rgb(254,254,254)" d="M 439.661 444.363 C 441.373 442.081 448.242 435.749 450.559 433.604 C 495.955 391.576 552.575 366.718 612.869 355.188 C 629.614 351.985 651.946 353.255 669.571 352.845 C 715.144 351.694 760.733 351.297 806.319 351.653 L 997.541 351.68 C 1029.46 351.68 1066.99 350.773 1098.57 351.923 C 1154.24 350.748 1210.37 352.399 1266.09 351.781 C 1273.97 351.694 1282.83 351.525 1290.63 351.955 C 1295.83 352.854 1295.42 351.946 1298.66 354.932 C 1301.81 366.914 1274.75 386.354 1267.54 394.028 C 1259.75 402.309 1252.11 412.299 1244.84 421.16 C 1227.05 449.086 1202.29 490.292 1193.83 522.355 C 1190.66 534.356 1191.11 562.544 1188.28 571.009 L 1189.54 571.164 C 1191.41 569.034 1191.26 569.174 1191.9 566.388 C 1192.23 570.239 1192.49 573.612 1192.59 577.473 C 1311.25 622.787 1407.25 713.067 1459.76 828.722 C 1463.26 836.408 1466.72 844.115 1470.14 851.84 C 1529.75 845.29 1592.18 856.593 1648.04 878.003 C 1664.4 884.277 1679.48 893.434 1694.37 899.272 C 1695.24 927.754 1694.3 960.593 1694.24 989.412 L 1694 1166.72 L 1693.98 1290.73 C 1693.98 1333.98 1697.62 1376.74 1686.25 1418.8 C 1646.15 1567.14 1512.72 1687.98 1356.25 1694.55 C 1333.65 1695.49 1310.33 1694.85 1287.82 1694.79 L 1139.53 1695.13 C 1039.01 1695.56 938.496 1695.47 837.98 1694.87 L 747.438 1694.89 C 683.983 1695.07 651.651 1695.1 590.94 1673.08 C 588.879 1671.79 580.221 1668.51 577.502 1667.32 C 464.525 1617.9 379.197 1516.39 357.192 1394.17 C 354.465 1379.03 354.136 1368.75 353.989 1353.59 C 353.324 1284.86 353.335 1216.11 353.443 1147.37 C 352.794 1115.08 353.408 1080.26 353.375 1047.77 L 353.187 853.621 L 353.15 718.938 C 353.107 695.099 352.365 666.75 353.252 643.347 C 355.467 584.952 376.049 527.758 409.85 480.281 C 418.923 467.537 428.056 455.049 439.661 444.363 z"/>
<path transform="translate(0,0)" fill="url(#Gradient6)" d="M 439.661 444.363 C 441.373 442.081 448.242 435.749 450.559 433.604 C 495.955 391.576 552.575 366.718 612.869 355.188 C 629.614 351.985 651.946 353.255 669.571 352.845 C 715.144 351.694 760.733 351.297 806.319 351.653 L 997.541 351.68 C 1029.46 351.68 1066.99 350.773 1098.57 351.923 C 1154.24 350.748 1210.37 352.399 1266.09 351.781 C 1273.97 351.694 1282.83 351.525 1290.63 351.955 C 1295.83 352.854 1295.42 351.946 1298.66 354.932 C 1301.81 366.914 1274.75 386.354 1267.54 394.028 C 1259.75 402.309 1252.11 412.299 1244.84 421.16 C 1227.05 449.086 1202.29 490.292 1193.83 522.355 C 1190.66 534.356 1191.11 562.544 1188.28 571.009 L 1189.54 571.164 C 1191.41 569.034 1191.26 569.174 1191.9 566.388 C 1192.23 570.239 1192.49 573.612 1192.59 577.473 C 1078.3 533.457 951.347 535.762 838.729 583.899 C 821.425 591.39 805.799 600.879 790.101 607.823 C 716.47 651.205 658.949 705.22 614.81 779.144 C 555.198 877.553 533.454 994.299 553.64 1107.57 C 551.295 1109.75 550.192 1110.25 550.294 1114.33 C 550.854 1136.82 559.77 1177.02 566.688 1197.61 C 515.194 1199.04 458.354 1190.68 409.859 1172.8 C 391.424 1166 371.782 1155.45 353.443 1147.37 C 352.794 1115.08 353.408 1080.26 353.375 1047.77 L 353.187 853.621 L 353.15 718.938 C 353.107 695.099 352.365 666.75 353.252 643.347 C 355.467 584.952 376.049 527.758 409.85 480.281 C 418.923 467.537 428.056 455.049 439.661 444.363 z"/>
<path transform="translate(0,0)" fill="url(#Gradient5)" d="M 439.661 444.363 C 438.246 451.725 429.454 456.455 426.754 461.959 C 416.392 483.087 402.393 503.697 395.18 526.144 C 392.851 534.773 405.969 544.888 407.177 551.703 C 410.673 571.433 405.539 600.705 410.059 619.873 C 421.541 668.578 440.477 713.76 484.038 741.963 C 505.253 755.698 512.52 763.069 537.636 770.017 C 546.411 772.435 555.406 773.969 564.486 774.595 C 577.032 775.445 598.193 773.956 611.208 775.563 C 611.412 775.589 614.294 778.552 614.81 779.144 C 555.198 877.553 533.454 994.299 553.64 1107.57 C 551.295 1109.75 550.192 1110.25 550.294 1114.33 C 550.854 1136.82 559.77 1177.02 566.688 1197.61 C 515.194 1199.04 458.354 1190.68 409.859 1172.8 C 391.424 1166 371.782 1155.45 353.443 1147.37 C 352.794 1115.08 353.408 1080.26 353.375 1047.77 L 353.187 853.621 L 353.15 718.938 C 353.107 695.099 352.365 666.75 353.252 643.347 C 355.467 584.952 376.049 527.758 409.85 480.281 C 418.923 467.537 428.056 455.049 439.661 444.363 z"/>
<path transform="translate(0,0)" fill="url(#Gradient4)" d="M 1098.57 351.923 C 1154.24 350.748 1210.37 352.399 1266.09 351.781 C 1273.97 351.694 1282.83 351.525 1290.63 351.955 C 1295.83 352.854 1295.42 351.946 1298.66 354.932 C 1301.81 366.914 1274.75 386.354 1267.54 394.028 C 1259.75 402.309 1252.11 412.299 1244.84 421.16 C 1227.05 449.086 1202.29 490.292 1193.83 522.355 C 1190.66 534.356 1191.11 562.544 1188.28 571.009 L 1189.54 571.164 C 1191.41 569.034 1191.26 569.174 1191.9 566.388 C 1192.23 570.239 1192.49 573.612 1192.59 577.473 C 1078.3 533.457 951.347 535.762 838.729 583.899 C 821.425 591.39 805.799 600.879 790.101 607.823 L 785.411 605.839 C 780.312 598.961 787.264 589.68 785.249 579.911 C 780.866 558.654 779.697 536.417 771.337 516.221 L 770.734 514.795 C 777.938 518.585 784.936 571.449 786.118 580.979 C 786.901 587.302 784.064 599.757 785.982 604.32 C 789.511 606.382 787.638 605.801 791.874 605.93 C 805.119 593.165 872.063 569.164 891.936 562.689 C 897.324 560.934 909.619 559.557 915.245 556.92 C 918.342 555.468 917.636 551.657 918.563 548.942 C 920.445 547.183 922.012 545.718 923.264 544.549 L 921.865 538.506 C 928.798 524.386 943.789 519.886 955.084 510.02 C 962.814 503.267 963.454 494.22 969.66 489.001 C 976.614 483.153 986.365 479.194 993.028 470.887 C 1006.83 453.683 1020.07 433.075 1034.15 416.205 C 1033.91 416.49 1037.48 414.584 1037.5 414.597 C 1038.64 415.381 1041.3 409.506 1041.67 408.313 C 1045.05 397.35 1056.15 397.293 1063.67 390.1 C 1066.62 386.289 1068.6 381.376 1071.22 377.318 C 1075.16 371.199 1081.41 366.14 1077.76 358.434 C 1075.06 355.755 1071.59 355.396 1067.82 354.49 C 1073.99 354.481 1101.15 355.325 1104.47 353.706 C 1102.51 352.968 1100.58 352.487 1098.57 351.923 z"/>
<path transform="translate(0,0)" fill="rgb(61,211,128)" d="M 1470.14 851.84 C 1529.75 845.29 1592.18 856.593 1648.04 878.003 C 1664.4 884.277 1679.48 893.434 1694.37 899.272 C 1695.24 927.754 1694.3 960.593 1694.24 989.412 L 1694 1166.72 L 1693.98 1290.73 C 1693.98 1333.98 1697.62 1376.74 1686.25 1418.8 C 1646.15 1567.14 1512.72 1687.98 1356.25 1694.55 C 1333.65 1695.49 1310.33 1694.85 1287.82 1694.79 L 1139.53 1695.13 C 1143.73 1688.17 1148.12 1677.99 1151.78 1670.58 C 1175.45 1622.54 1190.7 1561.33 1190.95 1507.4 L 1191 1501.35 C 1208.13 1501.64 1250.49 1478.56 1267.9 1470.66 C 1277.05 1467.95 1279.73 1464 1287.94 1461.11 C 1321.68 1470 1354.77 1484.04 1389.4 1491.17 C 1400.69 1493.5 1414.65 1500.58 1426.06 1502.48 C 1438.87 1496.69 1440.6 1485.29 1443.18 1472.34 C 1446.52 1473.52 1452.07 1475.11 1454.64 1477.21 L 1458.6 1477.57 L 1459.8 1476.21 C 1458.37 1463.94 1445.54 1422.84 1440.96 1408.22 C 1430.4 1374.58 1421.35 1338.4 1410.65 1305.19 C 1428.85 1277.94 1446.64 1248.76 1459.96 1218.77 C 1512.07 1102.69 1515.73 970.628 1470.14 851.84 z"/>
<path transform="translate(0,0)" fill="rgb(137,199,96)" d="M 1191 1501.35 C 1208.13 1501.64 1250.49 1478.56 1267.9 1470.66 C 1273.57 1477.86 1273.6 1486.17 1276.05 1494.99 C 1278.51 1503.87 1285.01 1516.03 1286.55 1524.43 C 1291.36 1550.56 1289.96 1579.3 1291.47 1605.89 C 1292.17 1618.18 1296.24 1633.63 1294.45 1645.22 C 1292.13 1660.25 1288.91 1679.74 1287.82 1694.79 L 1139.53 1695.13 C 1143.73 1688.17 1148.12 1677.99 1151.78 1670.58 C 1175.45 1622.54 1190.7 1561.33 1190.95 1507.4 L 1191 1501.35 z"/>
<path transform="translate(0,0)" fill="rgb(137,199,96)" d="M 1443.18 1472.34 C 1446.52 1473.52 1452.07 1475.11 1454.64 1477.21 C 1450.63 1485.03 1458.56 1505.49 1462.02 1513.75 C 1449.98 1510.16 1437.99 1506.41 1426.06 1502.48 C 1438.87 1496.69 1440.6 1485.29 1443.18 1472.34 z"/>
<path transform="translate(0,0)" fill="rgb(246,101,133)" d="M 353.443 1147.37 C 371.782 1155.45 391.424 1166 409.859 1172.8 C 458.354 1190.68 515.194 1199.04 566.688 1197.61 L 567.854 1198 C 605.76 1296.85 636.301 1359.74 721.769 1427.13 C 762.816 1459.49 781.266 1472.5 830.397 1494.41 L 845.493 1501.07 C 841.594 1505.31 838.499 1507.07 834.829 1511.07 C 801.634 1547.26 772.092 1581.49 728.34 1605.55 C 718.97 1611.04 708.605 1614.39 698.689 1618.99 C 692.501 1621.85 676.572 1636.16 673.134 1637.02 C 652.045 1642.33 639.167 1645.7 620.907 1657.52 C 610.25 1664.42 599.963 1652.86 590.94 1673.08 C 588.879 1671.79 580.221 1668.51 577.502 1667.32 C 464.525 1617.9 379.197 1516.39 357.192 1394.17 C 354.465 1379.03 354.136 1368.75 353.989 1353.59 C 353.324 1284.86 353.335 1216.11 353.443 1147.37 z"/>
<path transform="translate(0,0)" fill="url(#Gradient3)" d="M 845.493 1501.07 C 852.996 1503.79 894.53 1518.41 901.729 1518.67 C 915.64 1525.03 944.088 1529.37 959.953 1531.47 C 1019.93 1539.69 1080.91 1536.62 1139.75 1522.42 C 1157.11 1518.2 1173.86 1511.72 1190.95 1507.4 C 1190.7 1561.33 1175.45 1622.54 1151.78 1670.58 C 1148.12 1677.99 1143.73 1688.17 1139.53 1695.13 C 1039.01 1695.56 938.496 1695.47 837.98 1694.87 L 747.438 1694.89 C 683.983 1695.07 651.651 1695.1 590.94 1673.08 C 599.963 1652.86 610.25 1664.42 620.907 1657.52 C 639.167 1645.7 652.045 1642.33 673.134 1637.02 C 676.572 1636.16 692.501 1621.85 698.689 1618.99 C 708.605 1614.39 718.97 1611.04 728.34 1605.55 C 772.092 1581.49 801.634 1547.26 834.829 1511.07 C 838.499 1507.07 841.594 1505.31 845.493 1501.07 z"/>
<path transform="translate(0,0)" fill="rgb(214,97,110)" d="M 578.964 1197.91 C 629.592 1320.64 718.258 1412.63 841.24 1464.92 C 862.219 1473.85 903.916 1488.93 926.549 1491.75 C 921.537 1502.05 911.233 1506.25 901.729 1518.67 C 894.53 1518.41 852.996 1503.79 845.493 1501.07 L 830.397 1494.41 C 781.266 1472.5 762.816 1459.49 721.769 1427.13 C 636.301 1359.74 605.76 1296.85 567.854 1198 L 578.964 1197.91 z"/>
<path transform="translate(0,0)" fill="rgb(217,137,62)" d="M 926.549 1491.75 C 938.996 1495.04 961.602 1497.84 974.827 1499.24 C 1052.58 1507.47 1116.49 1496.21 1189.8 1472.23 C 1190.6 1482.86 1190.94 1490.66 1191 1501.35 L 1190.95 1507.4 C 1173.86 1511.72 1157.11 1518.2 1139.75 1522.42 C 1080.91 1536.62 1019.93 1539.69 959.953 1531.47 C 944.088 1529.37 915.64 1525.03 901.729 1518.67 C 911.233 1506.25 921.537 1502.05 926.549 1491.75 z"/>
<path transform="translate(0,0)" fill="rgb(113,184,136)" d="M 1286.67 1423.29 C 1324.35 1435.4 1362.09 1447.29 1399.9 1458.97 C 1411.02 1462.39 1432.46 1470.24 1443.18 1472.34 C 1440.6 1485.29 1438.87 1496.69 1426.06 1502.48 C 1414.65 1500.58 1400.69 1493.5 1389.4 1491.17 C 1354.77 1484.04 1321.68 1470 1287.94 1461.11 C 1279.73 1464 1277.05 1467.95 1267.9 1470.66 C 1250.49 1478.56 1208.13 1501.64 1191 1501.35 C 1190.94 1490.66 1190.6 1482.86 1189.8 1472.23 C 1223.51 1460.16 1256.04 1441.69 1286.67 1423.29 z"/>
<path transform="translate(0,0)" fill="rgb(137,76,179)" d="M 566.688 1197.61 C 559.77 1177.02 550.854 1136.82 550.294 1114.33 C 550.192 1110.25 551.295 1109.75 553.64 1107.57 C 560.333 1140.52 566.331 1166.4 578.964 1197.91 L 567.854 1198 L 566.688 1197.61 z"/>
<path transform="translate(0,0)" fill="rgb(157,108,206)" d="M 820.189 664.829 C 827.133 660.736 834.211 656.875 841.411 653.251 C 932.126 607.574 1049.21 597.348 1145.88 629.161 C 1257.56 661.28 1362.87 754.838 1405.1 863.723 C 1419.33 897.395 1429.01 932.814 1433.89 969.043 C 1435.33 980.314 1435.39 989.353 1436.49 999.845 C 1438.81 1017.62 1437.58 1040.93 1435.98 1058.72 C 1429.44 1137.7 1400.12 1213.08 1351.56 1275.71 C 1307.39 1333.02 1249.03 1377.8 1182.25 1405.62 C 1131.26 1424.17 1094.55 1434.54 1039.25 1436.55 C 954.226 1439.55 870.337 1416.32 798.97 1370.01 C 788.678 1363.21 774.59 1354.09 765.718 1345.84 C 756.644 1339.47 743.734 1327.37 735.608 1319.36 C 697.474 1282.32 666.862 1238.25 645.456 1189.58 C 644.164 1184.94 639.452 1173.57 637.587 1168.58 C 632.615 1155.61 628.289 1142.4 624.624 1129 C 608.126 1067.11 604.808 968.79 627.698 908.836 C 628.169 906.305 629.081 902.924 629.829 900.452 C 659.681 801.778 730.63 714.605 820.189 664.829 z"/>
<path transform="translate(0,0)" fill="rgb(254,254,254)" d="M 931.589 913.041 C 930.246 883.314 930.575 849.094 952.267 826.208 C 986.323 790.277 1056.33 788.183 1092.45 822.112 C 1112.19 840.654 1116.21 864.662 1116.83 890.263 C 1117 897.857 1117.02 905.454 1116.9 913.048 C 1121.12 916.701 1121.67 917.519 1124.73 922.225 C 1125.53 935.024 1125.61 942.804 1122.04 955.27 C 1119.3 964.842 1110.28 969.545 1107.27 976.507 C 1098.36 997.104 1089.5 1013.59 1076.89 1032.24 C 1076.99 1042.5 1077.8 1053.31 1086.03 1060.59 C 1102.42 1075.08 1133.18 1085.86 1152.84 1095.12 C 1174.44 1105.61 1203.18 1118.16 1209.84 1143.62 C 1223.96 1197.64 1229.25 1216.26 1170 1232.92 C 1152.3 1237.75 1134.28 1241.33 1116.07 1243.62 C 1126.12 1261.84 1137.53 1280.6 1146.12 1299.43 C 1161.59 1333.34 1175.01 1368.97 1182.25 1405.62 C 1131.26 1424.17 1094.55 1434.54 1039.25 1436.55 C 954.226 1439.55 870.337 1416.32 798.97 1370.01 C 788.678 1363.21 774.59 1354.09 765.718 1345.84 C 756.644 1339.47 743.734 1327.37 735.608 1319.36 C 697.474 1282.32 666.862 1238.25 645.456 1189.58 C 659.886 1184.36 716.175 1174.68 722.101 1164.24 C 751.699 1170.94 780.498 1172.51 810.69 1173.25 C 810.787 1171.33 810.945 1169.42 811.164 1167.51 C 815.984 1125.49 828.864 1106.8 866.111 1087.04 C 871.071 1084.4 887.956 1075.98 890.796 1073.7 L 890.291 1072.24 C 892.485 1043.62 944.639 1038.22 967.191 1029.96 L 969.078 1029.25 C 956.247 1011.07 951.44 997.656 941.246 978.442 C 931.238 959.579 908.914 933.896 931.589 913.041 z"/>
<path transform="translate(0,0)" fill="rgb(239,127,108)" d="M 856.723 1224.83 C 928.752 1253.24 1040.2 1253.24 1116.07 1243.62 C 1126.12 1261.84 1137.53 1280.6 1146.12 1299.43 C 1161.59 1333.34 1175.01 1368.97 1182.25 1405.62 C 1131.26 1424.17 1094.55 1434.54 1039.25 1436.55 C 954.226 1439.55 870.337 1416.32 798.97 1370.01 C 788.678 1363.21 774.59 1354.09 765.718 1345.84 C 764.966 1344.06 763.059 1340.25 764.116 1338.64 C 771.813 1326.89 786.663 1315.3 796.432 1304.86 C 805.107 1295.72 812.476 1285.43 820.364 1275.58 C 833.107 1259.66 851.519 1245.23 856.723 1224.83 z"/>
<path transform="translate(0,0)" fill="rgb(213,86,171)" d="M 969.078 1029.25 C 971.929 1035.21 972.108 1042.82 969.736 1049.02 C 957.717 1080.41 871.687 1093.34 847.683 1126.53 C 838.719 1138.93 835.862 1153.08 833.262 1167.85 C 831.253 1179.25 827.086 1193.79 831.607 1204.87 C 835.943 1215.49 846.897 1220.47 856.723 1224.83 C 851.519 1245.23 833.107 1259.66 820.364 1275.58 C 812.476 1285.43 805.107 1295.72 796.432 1304.86 C 786.663 1315.3 771.813 1326.89 764.116 1338.64 C 763.059 1340.25 764.966 1344.06 765.718 1345.84 C 756.644 1339.47 743.734 1327.37 735.608 1319.36 C 697.474 1282.32 666.862 1238.25 645.456 1189.58 C 659.886 1184.36 716.175 1174.68 722.101 1164.24 C 751.699 1170.94 780.498 1172.51 810.69 1173.25 C 810.787 1171.33 810.945 1169.42 811.164 1167.51 C 815.984 1125.49 828.864 1106.8 866.111 1087.04 C 871.071 1084.4 887.956 1075.98 890.796 1073.7 L 890.291 1072.24 C 892.485 1043.62 944.639 1038.22 967.191 1029.96 L 969.078 1029.25 z"/>
<path transform="translate(0,0)" fill="rgb(113,184,136)" d="M 1386.68 866.891 C 1392.87 864.13 1398.51 863.803 1405.1 863.723 C 1419.33 897.395 1429.01 932.814 1433.89 969.043 C 1435.33 980.314 1435.39 989.353 1436.49 999.845 C 1438.81 1017.62 1437.58 1040.93 1435.98 1058.72 C 1429.44 1137.7 1400.12 1213.08 1351.56 1275.71 C 1307.39 1333.02 1249.03 1377.8 1182.25 1405.62 C 1175.01 1368.97 1161.59 1333.34 1146.12 1299.43 C 1137.53 1280.6 1126.12 1261.84 1116.07 1243.62 C 1134.28 1241.33 1152.3 1237.75 1170 1232.92 C 1229.25 1216.26 1223.96 1197.64 1209.84 1143.62 C 1203.18 1118.16 1174.44 1105.61 1152.84 1095.12 C 1156.4 1089.25 1161.1 1083.18 1163.03 1076.85 C 1160.37 1075.59 1159.86 1075.74 1158.36 1073.35 C 1160.96 1068.72 1209.51 1055.12 1207.49 1040.5 C 1203.48 1011.56 1179.24 994.379 1177.27 963.583 L 1179 960.016 C 1186.98 943.91 1179.16 925.153 1190.04 906.4 C 1200.67 888.071 1213.39 884.557 1232.08 879.137 C 1256.04 878.5 1279.54 879.55 1294.9 901.474 C 1303.28 898.148 1312.81 893.25 1321.48 889.589 C 1342.55 880.595 1364.18 872.976 1386.23 866.781 L 1386.68 866.891 z"/>
<path transform="translate(0,0)" fill="rgb(254,254,254)" d="M 1232.08 879.137 C 1256.04 878.5 1279.54 879.55 1294.9 901.474 C 1309.13 928.113 1300.83 937.007 1307.68 960.098 C 1318.88 997.833 1251.79 1030.97 1294.36 1056.38 C 1321.65 1071.88 1357.31 1074.85 1367.51 1109.93 C 1380.1 1153.26 1360.05 1157.17 1323.04 1165.58 C 1295.17 1171.92 1266.42 1172.92 1237.34 1173.34 C 1231.83 1117.3 1212.94 1099.75 1163.03 1076.85 C 1160.37 1075.59 1159.86 1075.74 1158.36 1073.35 C 1160.96 1068.72 1209.51 1055.12 1207.49 1040.5 C 1203.48 1011.56 1179.24 994.379 1177.27 963.583 L 1179 960.016 C 1186.98 943.91 1179.16 925.153 1190.04 906.4 C 1200.67 888.071 1213.39 884.557 1232.08 879.137 z"/>
<path transform="translate(0,0)" fill="rgb(91,148,140)" d="M 1386.68 866.891 C 1392.87 864.13 1398.51 863.803 1405.1 863.723 C 1419.33 897.395 1429.01 932.814 1433.89 969.043 C 1435.33 980.314 1435.39 989.353 1436.49 999.845 L 1435.77 1002.63 L 1434.03 1003.49 C 1427.78 998.667 1421.68 957.74 1418.35 946.104 C 1410.1 917.339 1397.43 894.219 1386.68 866.891 z"/>
<path transform="translate(0,0)" fill="rgb(254,254,254)" d="M 678.028 1141.79 C 675.198 1089.48 701.17 1078.53 743.285 1061.8 C 750.68 1058.87 759.065 1054.62 764.267 1048.73 C 780.701 1030.15 741.079 993.836 739.36 972.174 C 738.621 962.856 742.798 959.222 743.235 953.23 C 744.428 932.941 742.238 914.048 756.886 897.447 C 778.636 872.796 824.505 872.053 848.528 893.579 C 864.22 907.64 865.879 928.897 865.841 948.487 C 865.828 954.952 867.941 958.062 869.952 964.028 C 873.39 982.986 852.122 1005.89 844.669 1022.58 C 841.62 1029.41 839.387 1036.05 842.079 1042.7 C 848.272 1057.99 875.601 1065.11 890.291 1072.24 L 890.796 1073.7 C 887.956 1075.98 871.071 1084.4 866.111 1087.04 C 828.864 1106.8 815.984 1125.49 811.164 1167.51 C 810.945 1169.42 810.787 1171.33 810.69 1173.25 C 780.498 1172.51 751.699 1170.94 722.101 1164.24 C 716.816 1163.05 711.566 1161.72 706.355 1160.24 C 693.017 1156.47 684.833 1153.99 678.028 1141.79 z"/>
<path transform="translate(0,0)" fill="rgb(246,101,133)" d="M 1145.88 629.161 C 1257.56 661.28 1362.87 754.838 1405.1 863.723 C 1398.51 863.803 1392.87 864.13 1386.68 866.891 L 1386.23 866.781 C 1364.18 872.976 1342.55 880.595 1321.48 889.589 C 1312.81 893.25 1303.28 898.148 1294.9 901.474 C 1279.54 879.55 1256.04 878.5 1232.08 879.137 C 1238.53 874.638 1248.41 876.349 1255.74 877.612 C 1255.39 846.111 1265.6 825.381 1269.3 796.037 C 1273.04 766.454 1262.98 769.592 1281.1 740.264 C 1277.16 737.866 1271.6 733.346 1267.86 730.455 C 1248.25 715.293 1226.36 704.039 1205.79 690.444 C 1202.14 689.346 1197.51 687.18 1193.95 685.594 C 1177.27 678.152 1161.12 671.402 1143.58 666.083 C 1143.56 660.969 1149.45 647.964 1151.51 640.368 C 1148.88 635.923 1147.66 633.963 1145.88 629.161 z"/>
<path transform="translate(0,0)" fill="rgb(213,86,171)" d="M 1145.88 629.161 C 1257.56 661.28 1362.87 754.838 1405.1 863.723 C 1398.51 863.803 1392.87 864.13 1386.68 866.891 L 1386.23 866.781 C 1381.97 849.537 1355.02 812.91 1342.95 798.492 C 1334.69 788.628 1290.44 741.145 1281.1 740.264 C 1277.16 737.866 1271.6 733.346 1267.86 730.455 C 1248.25 715.293 1226.36 704.039 1205.79 690.444 C 1202.14 689.346 1197.51 687.18 1193.95 685.594 C 1177.27 678.152 1161.12 671.402 1143.58 666.083 C 1143.56 660.969 1149.45 647.964 1151.51 640.368 C 1148.88 635.923 1147.66 633.963 1145.88 629.161 z"/>
<path transform="translate(0,0)" fill="rgb(137,76,179)" d="M 1151.51 640.368 C 1155 648.34 1152.9 656.807 1152.62 665.621 C 1169.32 673.208 1193.3 679.016 1205.79 690.444 C 1202.14 689.346 1197.51 687.18 1193.95 685.594 C 1177.27 678.152 1161.12 671.402 1143.58 666.083 C 1143.56 660.969 1149.45 647.964 1151.51 640.368 z"/>
<path transform="translate(0,0)" fill="rgb(46,152,241)" d="M 820.189 664.829 C 823.593 674.582 825.767 687.063 827.882 697.353 L 829.742 703.748 C 833.556 718.641 836.09 729.349 841.519 744.009 C 842.01 749.104 843.335 751.125 844.063 755.267 L 843.317 756.042 C 837.312 762.385 830.486 772.296 824.793 777.628 C 800.015 800.832 772.533 820.588 744.856 840.118 C 736.246 846.194 721.325 858.282 712.107 861.806 C 703.107 865.246 679.015 868.599 669.458 868.994 C 666.924 869.088 664.388 869.096 661.854 869.017 C 657.946 877.621 647.015 898.748 646.407 906.898 L 645.18 907.463 L 644.308 906.699 C 641.656 904.414 641.047 903.568 637.622 902.694 C 633.1 903.511 630.996 905.301 628.349 909.242 L 627.698 908.836 C 628.169 906.305 629.081 902.924 629.829 900.452 C 659.681 801.778 730.63 714.605 820.189 664.829 z"/>
<path transform="translate(0,0)" fill="rgb(62,119,204)" d="M 820.189 664.829 C 823.593 674.582 825.767 687.063 827.882 697.353 C 768.566 730.153 718.176 776.969 681.111 833.718 C 675.464 842.403 664.631 859.8 661.854 869.017 C 657.946 877.621 647.015 898.748 646.407 906.898 L 645.18 907.463 L 644.308 906.699 C 641.656 904.414 641.047 903.568 637.622 902.694 C 633.1 903.511 630.996 905.301 628.349 909.242 L 627.698 908.836 C 628.169 906.305 629.081 902.924 629.829 900.452 C 659.681 801.778 730.63 714.605 820.189 664.829 z"/>
<path transform="translate(0,0)" fill="url(#Gradient2)" d="M 820.189 664.829 C 827.133 660.736 834.211 656.875 841.411 653.251 C 932.126 607.574 1049.21 597.348 1145.88 629.161 C 1147.66 633.963 1148.88 635.923 1151.51 640.368 C 1149.45 647.964 1143.56 660.969 1143.58 666.083 C 1120.73 659.358 1095.78 651.86 1071.98 649.235 C 1002.17 641.536 929.098 653.532 864.729 681.464 C 857.57 684.571 833.745 692.415 830.038 700.908 C 829.812 701.428 829.789 703.296 829.742 703.748 L 827.882 697.353 C 825.767 687.063 823.593 674.582 820.189 664.829 z"/>
<path transform="translate(0,0)" fill="rgb(137,76,179)" d="M 841.519 744.009 C 844.137 747.644 855.698 777.867 855.749 782.067 C 851.417 774.043 847.563 763.836 844.063 755.267 C 843.335 751.125 842.01 749.104 841.519 744.009 z"/>
<path transform="translate(0,0)" fill="url(#Gradient1)" d="M 1290.63 351.955 L 1373.47 352.009 C 1387.12 352.019 1412.93 351.39 1425.55 353.763 C 1463.96 357.806 1524.17 382.774 1556.34 403.191 C 1579.25 417.731 1609.63 445.17 1626.82 466.395 C 1661.99 510.475 1684.39 563.366 1691.57 619.302 C 1696.04 655.85 1694.64 706.399 1694.62 743.979 L 1694.37 899.272 C 1679.48 893.434 1664.4 884.277 1648.04 878.003 C 1592.18 856.593 1529.75 845.29 1470.14 851.84 C 1466.72 844.115 1463.26 836.408 1459.76 828.722 C 1407.25 713.067 1311.25 622.787 1192.59 577.473 C 1192.49 573.612 1192.23 570.239 1191.9 566.388 C 1191.26 569.174 1191.41 569.034 1189.54 571.164 L 1188.28 571.009 C 1191.11 562.544 1190.66 534.356 1193.83 522.355 C 1202.29 490.292 1227.05 449.086 1244.84 421.16 C 1252.11 412.299 1259.75 402.309 1267.54 394.028 C 1274.75 386.354 1301.81 366.914 1298.66 354.932 C 1295.42 351.946 1295.83 352.854 1290.63 351.955 z"/>
<path transform="translate(0,0)" fill="rgb(213,86,171)" d="M 1290.63 351.955 L 1373.47 352.009 C 1387.12 352.019 1412.93 351.39 1425.55 353.763 C 1412.59 354.244 1325.11 352.693 1321.08 355.632 C 1319.74 361.604 1316.32 363.652 1311.73 367.165 C 1297.95 377.686 1290.28 393.703 1279.62 407.216 C 1272.01 416.877 1264.42 427.307 1257.25 437.317 C 1254.14 441.973 1250.13 454.986 1246.92 459.566 C 1241.45 467.218 1233.26 472.036 1230.24 481.478 C 1228.18 487.942 1221.53 492.378 1218.23 497.773 C 1212.66 506.901 1202.89 518.325 1197.44 527.006 C 1192.2 535.358 1191.83 555.61 1192.11 565.174 C 1192.04 565.578 1191.97 565.983 1191.9 566.388 C 1191.26 569.174 1191.41 569.034 1189.54 571.164 L 1188.28 571.009 C 1191.11 562.544 1190.66 534.356 1193.83 522.355 C 1202.29 490.292 1227.05 449.086 1244.84 421.16 C 1252.11 412.299 1259.75 402.309 1267.54 394.028 C 1274.75 386.354 1301.81 366.914 1298.66 354.932 C 1295.42 351.946 1295.83 352.854 1290.63 351.955 z"/>
</svg>

